# xmcd CD database file
#
# Track frame offsets:
#	150
#	15509
#	31141
#	43611
#	61196
#	77494
#	91031
#	106163
#	120563
#	134532
#	151346
#	164291
#	176543
#	188106
#	202075
#	216712
#	234732
#	248124
#	262547
#	277178
#	291980
#	302208
#
# Disc length: 4379 seconds
#
# Revision: 2
# Processed by: cddbd v1.5.2PL0 Copyright (c) Steve Scherf et al.
# Submitted via: CDex 1.81
#
DISCID=30111916
DTITLE=The Legends - JazzDivas - The Very Best Of
DYEAR=2014
DGENRE=Jazz
TTITLE0=Billie Holiday - I'm A Fool To Want You
TTITLE1=Shirley Bassey - Cry Me A River
TTITLE2=Dinah Washington - Mad About The Boy
TTITLE3=Ella Fitzgerald - My Funny Valentine
TTITLE4=Nina Simone - My Baby Just Cares For Me
TTITLE5=Etta James - At Last
TTITLE6=Lena Horne - Stormy Weather
TTITLE7=Eartha Kitt - Autumn Leaves
TTITLE8=Dinah Shore - Mood Indigo
TTITLE9=Chris Connor - The Lady Sings The Blues
TTITLE10=Rosemary Clooney - You Make Me Feel So Young
TTITLE11=Abbey Lincoln - Softly As In A Morning Sunrise
TTITLE12=Anita O'Day - Gypsy In My Soul
TTITLE13=Lavern Baker - Tweedle Dee
TTITLE14=Della Reese - Whatever Lola Wants
TTITLE15=Sarah Vaughan - Lullaby Of Birdland
TTITLE16=Marilyn Monroe - I Loved By You
TTITLE17=Doris Day - Sentimental Journey
TTITLE18=Aretha Franklin - Try A Little Tenderness
TTITLE19=Peggy Lee - Fever
TTITLE20=Carmen McRae - Take Five
TTITLE21=Ella Fitzgerald - Cheek To Cheek
EXTD=YEAR: 2014
EXTT0=
EXTT1=
EXTT2=
EXTT3=
EXTT4=
EXTT5=
EXTT6=
EXTT7=
EXTT8=
EXTT9=
EXTT10=
EXTT11=
EXTT12=
EXTT13=
EXTT14=
EXTT15=
EXTT16=
EXTT17=
EXTT18=
EXTT19=
EXTT20=
EXTT21=
PLAYORDER=
